<?xml version="1.0" standalone="no"?>
<!DOCTYPE svg PUBLIC "-//W3C//DTD SVG 20010904//EN"
 "http://www.w3.org/TR/2001/REC-SVG-20010904/DTD/svg10.dtd">
<svg version="1.0" xmlns="http://www.w3.org/2000/svg"
 width="2000.000000pt" height="1269.000000pt" viewBox="0 0 2000.000000 1269.000000"
 preserveAspectRatio="xMidYMid meet">

<g transform="translate(0.000000,1269.000000) scale(0.100000,-0.100000)"
fill="#000000" stroke="none">
<path d="M17755 12679 c-16 -5 -136 -36 -265 -69 -613 -154 -1277 -283 -1760
-340 -341 -40 -405 -42 -1225 -35 -541 5 -859 4 -1010 -4 -903 -47 -1530 -190
-2125 -488 -301 -150 -500 -283 -804 -536 l-30 -24 -31 41 c-209 274 -1138
586 -2135 715 -257 34 -486 50 -870 61 -201 6 -473 15 -605 20 -132 5 -357 14
-500 20 -143 5 -361 14 -485 20 -124 5 -378 17 -565 25 -357 16 -834 39 -1170
55 -110 6 -292 15 -405 20 -113 5 -277 14 -365 20 -409 24 -411 24 -433 2 -15
-15 -22 -44 -32 -133 -7 -63 -31 -282 -54 -487 l-41 -374 -295 -120 -295 -120
-173 12 c-158 12 -174 12 -189 -3 -13 -12 -258 -1332 -955 -5139 -516 -2818
-936 -5133 -933 -5146 3 -12 16 -27 28 -33 14 -6 1492 -14 4134 -22 l4111 -13
85 -80 c91 -85 161 -132 259 -171 55 -23 83 -26 262 -34 111 -5 527 -29 926
-54 1290 -79 1371 -82 1517 -66 62 6 129 21 170 37 l68 26 645 -6 c607 -5 999
-14 2125 -51 1078 -35 2752 -98 4384 -165 530 -22 1035 -40 1122 -40 l159 0 0
138 c-1 85 -155 2098 -404 5275 -384 4901 -403 5139 -423 5158 -20 21 -24 21
-218 10 l-197 -11 -357 247 c-196 135 -367 254 -380 265 -16 12 -41 18 -77 18
-30 0 -55 1 -55 3 -1 1 -7 350 -13 775 l-11 774 -24 19 c-25 21 -41 22 -86 8z
m-5 -286 c0 -156 135 -9732 143 -10140 l4 -211 -111 -21 c-520 -98 -1231 -192
-1776 -235 -490 -39 -914 -52 -2120 -66 -833 -10 -1155 -19 -1390 -41 -329
-30 -708 -110 -1190 -253 -192 -56 -287 -87 -825 -261 -325 -105 -535 -169
-540 -163 -2 2 17 246 41 542 377 4616 634 8431 634 9417 l0 135 93 77 c633
528 1398 818 2397 911 351 33 606 38 1410 32 839 -8 912 -5 1302 44 463 59
1281 222 1803 359 61 16 113 30 118 30 4 1 7 -70 7 -156z m-14070 -348 c800
-41 1751 -85 2470 -115 847 -35 977 -40 1350 -50 503 -14 745 -36 1157 -105
860 -144 1653 -434 1771 -649 36 -66 14 -712 -73 -2156 -103 -1698 -337 -4979
-510 -7160 -25 -311 -48 -605 -52 -653 -3 -48 -9 -89 -12 -92 -4 -2 -27 21
-51 51 -177 217 -513 397 -890 478 -411 89 -1523 172 -3655 276 -924 45 -2041
91 -2885 120 -173 6 -317 13 -319 16 -16 16 364 3546 1057 9832 l27 243 70 -6
c38 -3 284 -17 545 -30z m-917 -1047 c-2 -13 -341 -2164 -752 -4781 -412
-2617 -750 -4759 -752 -4761 -7 -8 -780 -248 -784 -245 -2 2 386 2153 861
4779 475 2626 864 4781 864 4788 0 7 15 19 33 27 49 22 521 214 528 215 3 0 4
-10 2 -22z m15303 -5156 c81 -2668 145 -4854 143 -4856 -2 -1 -254 5 -559 15
-2926 94 -5814 114 -6985 50 -77 -4 -142 -6 -143 -5 -5 3 532 177 748 243 483
146 876 233 1205 266 259 26 554 35 1465 45 1179 13 1591 26 2080 65 534 43
1108 117 1660 214 307 54 301 53 321 81 17 24 16 194 -47 4510 -35 2466 -61
4491 -57 4500 4 8 10 -50 15 -130 4 -80 74 -2329 154 -4998z m409 4777 c239
-165 435 -304 435 -307 0 -4 160 -2239 354 -4967 195 -2728 353 -4961 352
-4962 -2 -2 -288 127 -637 285 l-634 288 -7 54 c-4 30 -73 2240 -153 4910 -79
2670 -147 4888 -149 4928 -2 39 -2 72 0 72 3 0 200 -135 439 -301z m-15808
-1051 c-3 -8 -6 -5 -6 6 -1 11 2 17 5 13 3 -3 4 -12 1 -19z m-10 -85 c-3 -10
-5 -2 -5 17 0 19 2 27 5 18 2 -10 2 -26 0 -35z m-106 -968 c-453 -4121 -709
-6541 -697 -6590 3 -13 14 -29 24 -34 9 -5 175 -14 367 -20 1792 -59 4070
-170 5340 -261 596 -43 1035 -90 1220 -131 328 -73 592 -200 766 -371 71 -70
137 -153 114 -144 -11 4 -43 11 -71 16 -29 5 -70 22 -96 39 -25 17 -81 46
-124 64 -453 193 -1233 316 -2324 367 -723 33 -2920 48 -4559 31 -612 -7
-1115 -10 -1117 -8 -3 2 278 1801 623 3998 345 2197 629 3985 631 3974 1 -11
-42 -429 -97 -930z m2894 -7155 c1742 -18 2347 -52 3065 -171 172 -28 450 -86
459 -95 2 -2 -65 -4 -150 -4 -85 0 -199 -7 -254 -15 -195 -28 -1961 -12 -5445
50 -448 8 -1103 19 -1455 26 -352 6 -694 14 -759 17 l-119 7 267 84 268 83
161 5 c594 18 2792 25 3962 13z m8635 -400 c1280 -17 2173 -37 3695 -86 l490
-15 553 -251 c303 -138 551 -253 549 -254 -2 -2 -129 1 -283 6 -685 24 -2518
77 -3404 100 -1479 37 -2305 50 -3196 50 -814 0 -1140 -10 -1259 -37 -38 -9
-111 -18 -162 -20 -136 -6 -307 38 -578 150 -166 68 -569 256 -563 263 7 6
288 35 488 49 717 49 2058 66 3670 45z"/>
</g>
</svg>
