<svg xmlns="http://www.w3.org/2000/svg" xmlns:xlink="http://www.w3.org/1999/xlink">
    <defs>
        <symbol id="search" viewBox="0 0 24 24" fill="none" stroke-linecap="round">
            <circle cx="11" cy="11" r="8"></circle>
            <line x1="21" y1="21" x2="16.65" y2="16.65"></line>
        </symbol>
        <symbol id="home" viewBox="0 0 24 24" stroke-width="2" stroke="currentColor" fill="none" stroke-linecap="round" stroke-linejoin="round">
            <path stroke="none" d="M0 0h24v24H0z" fill="none" />
            <path d="M19 8.71l-5.333 -4.148a2.666 2.666 0 0 0 -3.274 0l-5.334 4.148a2.665 2.665 0 0 0 -1.029 2.105v7.2a2 2 0 0 0 2 2h12a2 2 0 0 0 2 -2v-7.2c0 -.823 -.38 -1.6 -1.03 -2.105" />
            <path d="M16 15c-2.21 1.333 -5.792 1.333 -8 0" />
        </symbol>
        <symbol id="actors" viewBox="0 0 512 512">
    <path d="M259.69042,85.96457l49.64549,20.69969,20.70353,49.643a6.65746,6.65746,0,0,0,11.926,0L362.667,106.66426l49.64549-20.69969a6.66574,6.66574,0,0,0,0-11.92493L362.667,53.338,341.96545,3.697a6.65746,6.65746,0,0,0-11.926,0L309.33591,53.338,259.69042,74.03964a6.66574,6.66574,0,0,0,0,11.92493ZM364.294,267.29343,259.4951,251.99764l-46.90716-95.19633c-8.39078-16.99879-32.68813-17.2019-41.18829,0l-46.90716,95.19633L19.69358,267.29343C.89634,269.99636-6.71318,293.19783,6.99021,306.49376l75.90772,73.99472L64.89758,485.07476c-3.20319,18.9049,16.68782,33.107,33.29752,24.2014l93.7987-49.3871,93.79869,49.3871A22.95361,22.95361,0,0,0,319.09,485.07476L301.199,380.48848l75.89209-73.99472C390.70077,293.19783,383.09125,269.99636,364.294,267.29343ZM509.05268,219.2285,469.339,202.67109,452.7801,162.961a5.32691,5.32691,0,0,0-9.5412,0L426.678,202.67109l-39.7117,16.55741a5.33385,5.33385,0,0,0,0,9.54033L426.678,245.3282l16.56087,39.7081a5.32534,5.32534,0,0,0,9.5412,0L469.339,245.3282l39.71366-16.55937a5.33386,5.33386,0,0,0,0-9.54033Z"></path>
  </symbol>
        <symbol id="discovery" viewBox="0 0 576 512">
    <path d="M288 200a56 56 0 1 0 56 56 56 56 0 0 0-56-56zM64 256a214.3 214.3 0 0 1 55.42-144.06c5.59-6.22 4.91-15.74-1.08-21.59L96 68.53a16.41 16.41 0 0 0-23.56 1C25.59 121 0 186.56 0 256s25.59 135 72.44 186.52a16.41 16.41 0 0 0 23.56 1l22.34-21.82c6-5.85 6.67-15.37 1.08-21.59A214.3 214.3 0 0 1 64 256zm134.27-87.63l-22.76-22.23a16.44 16.44 0 0 0-24 1.31 168.77 168.77 0 0 0 0 217.1 16.44 16.44 0 0 0 24 1.31l22.76-22.22a15.12 15.12 0 0 0 1.45-20.32 107.39 107.39 0 0 1 0-134.64 15.11 15.11 0 0 0-1.45-20.31zm305.29-98.89a16.41 16.41 0 0 0-23.56-1l-22.34 21.87c-6 5.85-6.67 15.37-1.08 21.59a214.95 214.95 0 0 1 0 288.12c-5.59 6.22-4.91 15.74 1.08 21.59L480 443.47a16.41 16.41 0 0 0 23.56-1C550.41 391 576 325.44 576 256s-25.59-135-72.44-186.52zm-79.1 78a16.44 16.44 0 0 0-24-1.31L377.7 168.4a15.11 15.11 0 0 0-1.45 20.31 107.39 107.39 0 0 1 0 134.64 15.12 15.12 0 0 0 1.45 20.32l22.76 22.22a16.44 16.44 0 0 0 24-1.31 168.77 168.77 0 0 0 0-217.1z"></path>
  </symbol>
        <symbol id="discussion" viewBox="0 0 352 512">
    <path d="M336 192h-16c-8.84 0-16 7.16-16 16v48c0 74.8-64.49 134.82-140.79 127.38C96.71 376.89 48 317.11 48 250.3V208c0-8.84-7.16-16-16-16H16c-8.84 0-16 7.16-16 16v40.16c0 89.64 63.97 169.55 152 181.69V464H96c-8.84 0-16 7.16-16 16v16c0 8.84 7.16 16 16 16h160c8.84 0 16-7.16 16-16v-16c0-8.84-7.16-16-16-16h-56v-33.77C285.71 418.47 352 344.9 352 256v-48c0-8.84-7.16-16-16-16zM176 352c53.02 0 96-42.98 96-96h-85.33c-5.89 0-10.67-3.58-10.67-8v-16c0-4.42 4.78-8 10.67-8H272v-32h-85.33c-5.89 0-10.67-3.58-10.67-8v-16c0-4.42 4.78-8 10.67-8H272v-32h-85.33c-5.89 0-10.67-3.58-10.67-8v-16c0-4.42 4.78-8 10.67-8H272c0-53.02-42.98-96-96-96S80 42.98 80 96v160c0 53.02 42.98 96 96 96z"></path>
  </symbol>
        <symbol id="bookmark" viewBox="0 0 24 24" fill="none" stroke-linecap="round" stroke-linejoin="round">
            <path d="M19 21l-7-5-7 5V5a2 2 0 0 1 2-2h10a2 2 0 0 1 2 2z"></path>
        </symbol>
        <symbol id="check" viewBox="0 0 24 24" fill="none" stroke-linecap="round" stroke-linejoin="round">
            <polyline points="20 6 9 17 4 12"></polyline>
        </symbol>
        <symbol id="bell" viewBox="0 0 24 24" fill="none" stroke-linecap="round" stroke-linejoin="round">
            <path d="M18 8A6 6 0 0 0 6 8c0 7-3 9-3 9h18s-3-2-3-9"></path>
            <path d="M13.73 21a2 2 0 0 1-3.46 0"></path>
        </symbol>
        <symbol id="radio" viewBox="0 0 24 24" fill="none" stroke-width="2" stroke-linecap="round" stroke-linejoin="round">
            <circle cx="12" cy="12" r="2"></circle>
            <path d="M16.24 7.76a6 6 0 0 1 0 8.49m-8.48-.01a6 6 0 0 1 0-8.49m11.31-2.82a10 10 0 0 1 0 14.14m-14.14 0a10 10 0 0 1 0-14.14"></path>
        </symbol>
        <symbol id="filter" viewBox="0 0 512 512">
            <path d="M487.976 0H24.028C2.71 0-8.047 25.866 7.058 40.971L192 225.941V432c0 7.831 3.821 15.17 10.237 19.662l80 55.98C298.02 518.69 320 507.493 320 487.98V225.941l184.947-184.97C520.021 25.896 509.338 0 487.976 0z"></path>
        </symbol>
        <symbol id="play" viewBox="0 0 24 24" stroke-linecap="round" stroke-linejoin="round">
            <polygon points="5 3 19 12 5 21 5 3"></polygon>
        </symbol>
        <symbol id="settings" viewBox="0 0 512 512">
            <path d="M57 443 c-4 -3 -7 -14 -7 -24 0 -11 -9 -19 -22 -21 -23 -3 -23 -5
-26 -176 l-2 -173 47 8 c27 4 72 7 101 6 28 -1 75 -1 102 -1 28 0 74 0 103 1
28 1 73 -2 100 -6 l47 -8 -2 173 c-3 169 -3 173 -25 176 -14 2 -23 11 -25 25
-6 41 -115 35 -168 -10 l-31 -26 -22 21 c-12 11 -35 25 -50 31 -31 12 -110 15
-120 4z m123 -45 l45 -23 3 -128 3 -128 -30 15 c-16 9 -47 18 -70 22 l-41 7 0
128 c0 128 0 129 23 129 12 0 43 -10 67 -22z m230 -107 l0 -128 -41 -7 c-23
-4 -54 -13 -70 -22 l-30 -15 3 128 3 128 45 23 c24 12 55 22 67 22 23 0 23 -1
23 -129z m-358 -48 l3 -118 47 -3 c26 -1 57 -6 70 -11 19 -8 14 -10 -28 -10
-28 -1 -66 -4 -83 -7 l-31 -6 0 136 c0 169 18 185 22 19z m418 -19 l0 -136
-31 6 c-17 3 -55 6 -83 7 -42 0 -47 2 -28 10 13 5 44 10 70 11 l47 3 3 118 c4
166 22 150 22 -19z"></path>
        </symbol>
        <symbol id="tv" viewBox="0 0 640 512">
    <path d="M520 448H120a24 24 0 0 0-24 24v16a24 24 0 0 0 24 24h400a24 24 0 0 0 24-24v-16a24 24 0 0 0-24-24zM592 0H48A48 48 0 0 0 0 48v320a48 48 0 0 0 48 48h544a48 48 0 0 0 48-48V48a48 48 0 0 0-48-48zm-16 352H64V64h512z"></path>
  </symbol>
        <symbol id="categories" viewBox="0 0 512 512">
    <path d="M8 256c0 136.966 111.033 248 248 248s248-111.034 248-248S392.966 8 256 8 8 119.033 8 256zm248 184V72c101.705 0 184 82.311 184 184 0 101.705-82.311 184-184 184z"></path>
  </symbol>
        <symbol id="collections" viewBox="0 0 512 512">
    <path d="M496 104a24 24 0 0 0-24-24H40a24 24 0 0 0-24 24v24h480zm-16-80a24 24 0 0 0-24-24H56a24 24 0 0 0-24 24v24h448zM256 325.65c-16.63 0-30 9.93-29.86 22.09s13.5 21.72 29.86 21.72 29.73-9.68 29.87-21.72-13.23-22.09-29.87-22.09zM480 160H32A32 32 0 0 0 .13 194.9l26.19 288A32 32 0 0 0 58.18 512h395.64a32 32 0 0 0 31.86-29.1l26.19-288A32 32 0 0 0 480 160zM256 472.89c-94.26 0-174.39-54.53-179.21-125.15C71.71 273.1 151.82 209.4 256 209.4s184.29 63.7 179.21 138.34c-4.82 70.63-84.95 125.15-179.21 125.15z"></path>
  </symbol>
        <symbol id="trash" viewBox="0 0 24 24" stroke-linecap="round" stroke-linejoin="round">
            <polyline points="3 6 5 6 21 6"></polyline>
            <path d="M19 6v14a2 2 0 0 1-2 2H7a2 2 0 0 1-2-2V6m3 0V4a2 2 0 0 1 2-2h4a2 2 0 0 1 2 2v2"></path>
        </symbol>
        <symbol id="add" viewBox="0 0 448 512">
            <path d="M416 208H272V64c0-17.67-14.33-32-32-32h-32c-17.67 0-32 14.33-32 32v144H32c-17.67 0-32 14.33-32 32v32c0 17.67 14.33 32 32 32h144v144c0 17.67 14.33 32 32 32h32c17.67 0 32-14.33 32-32V304h144c17.67 0 32-14.33 32-32v-32c0-17.67-14.33-32-32-32z"></path>
        </symbol>
        <symbol id="like" viewBox="0 0 24 24" stroke="none">
            <path d="M0 0h24v24H0V0zm0 0h24v24H0V0z" fill="none" />
            <path d="M13.12 2.06L7.58 7.6c-.37.37-.58.88-.58 1.41V19c0 1.1.9 2 2 2h9c.8 0 1.52-.48 1.84-1.21l3.26-7.61C23.94 10.2 22.49 8 20.34 8h-5.65l.95-4.58c.1-.5-.05-1.01-.41-1.37-.59-.58-1.53-.58-2.11.01zM3 21c1.1 0 2-.9 2-2v-8c0-1.1-.9-2-2-2s-2 .9-2 2v8c0 1.1.9 2 2 2z" />
        </symbol>
        <symbol id="dislike" viewBox="0 0 24 24" stroke="none">
            <path d="M0 0h24v24H0V0zm0 0h24v24H0V0z" fill="none" />
            <path d="M10.88 21.94l5.53-5.54c.37-.37.58-.88.58-1.41V5c0-1.1-.9-2-2-2H6c-.8 0-1.52.48-1.83 1.21L.91 11.82C.06 13.8 1.51 16 3.66 16h5.65l-.95 4.58c-.1.5.05 1.01.41 1.37.59.58 1.53.58 2.11-.01zM21 3c-1.1 0-2 .9-2 2v8c0 1.1.9 2 2 2s2-.9 2-2V5c0-1.1-.9-2-2-2z" />
        </symbol>
  <symbol id="film" viewBox="0 0 512 512">
    <path d="M488 64h-8v20c0 6.6-5.4 12-12 12h-40c-6.6 0-12-5.4-12-12V64H96v20c0 6.6-5.4 12-12 12H44c-6.6 0-12-5.4-12-12V64h-8C10.7 64 0 74.7 0 88v336c0 13.3 10.7 24 24 24h8v-20c0-6.6 5.4-12 12-12h40c6.6 0 12 5.4 12 12v20h320v-20c0-6.6 5.4-12 12-12h40c6.6 0 12 5.4 12 12v20h8c13.3 0 24-10.7 24-24V88c0-13.3-10.7-24-24-24zM96 372c0 6.6-5.4 12-12 12H44c-6.6 0-12-5.4-12-12v-40c0-6.6 5.4-12 12-12h40c6.6 0 12 5.4 12 12v40zm0-96c0 6.6-5.4 12-12 12H44c-6.6 0-12-5.4-12-12v-40c0-6.6 5.4-12 12-12h40c6.6 0 12 5.4 12 12v40zm0-96c0 6.6-5.4 12-12 12H44c-6.6 0-12-5.4-12-12v-40c0-6.6 5.4-12 12-12h40c6.6 0 12 5.4 12 12v40zm272 208c0 6.6-5.4 12-12 12H156c-6.6 0-12-5.4-12-12v-96c0-6.6 5.4-12 12-12h200c6.6 0 12 5.4 12 12v96zm0-168c0 6.6-5.4 12-12 12H156c-6.6 0-12-5.4-12-12v-96c0-6.6 5.4-12 12-12h200c6.6 0 12 5.4 12 12v96zm112 152c0 6.6-5.4 12-12 12h-40c-6.6 0-12-5.4-12-12v-40c0-6.6 5.4-12 12-12h40c6.6 0 12 5.4 12 12v40zm0-96c0 6.6-5.4 12-12 12h-40c-6.6 0-12-5.4-12-12v-40c0-6.6 5.4-12 12-12h40c6.6 0 12 5.4 12 12v40zm0-96c0 6.6-5.4 12-12 12h-40c-6.6 0-12-5.4-12-12v-40c0-6.6 5.4-12 12-12h40c6.6 0 12 5.4 12 12v40z"></path>
  </symbol>
        <symbol id="remote-control" viewBox="0 0 24 24" fill="none" stroke="currentColor" stroke-linecap="round" stroke-linejoin="round">
            <path d="M10.29 3.86L1.82 18a2 2 0 0 0 1.71 3h16.94a2 2 0 0 0 1.71-3L13.71 3.86a2 2 0 0 0-3.42 0z"></path>
        </symbol>
        <symbol id="trend" viewBox="0 0 24 24" fill="none" stroke="currentColor" stroke-width="2" stroke-linecap="round" stroke-linejoin="round">
            <polyline points="23 6 13.5 15.5 8.5 10.5 1 18"></polyline>
            <polyline points="17 6 23 6 23 12"></polyline>
        </symbol>
        <symbol id="star" viewBox="0 0 24 24" fill="none" stroke="currentColor" stroke-linecap="round" stroke-linejoin="round">
            <polygon points="12 2 15.09 8.26 22 9.27 17 14.14 18.18 21.02 12 17.77 5.82 21.02 7 14.14 2 9.27 8.91 8.26 12 2"></polygon>
        </symbol>
        <symbol id="close" viewBox="0 0 320 512">
            <path d="M193.94 256L296.5 153.44l21.15-21.15c3.12-3.12 3.12-8.19 0-11.31l-22.63-22.63c-3.12-3.12-8.19-3.12-11.31 0L160 222.06 36.29 98.34c-3.12-3.12-8.19-3.12-11.31 0L2.34 120.97c-3.12 3.12-3.12 8.19 0 11.31L126.06 256 2.34 379.71c-3.12 3.12-3.12 8.19 0 11.31l22.63 22.63c3.12 3.12 8.19 3.12 11.31 0L160 289.94 262.56 392.5l21.15 21.15c3.12 3.12 8.19 3.12 11.31 0l22.63-22.63c3.12-3.12 3.12-8.19 0-11.31L193.94 256z"></path>
        </symbol>
        <symbol id="alert" viewBox="0 0 24 24" fill="none" stroke-linecap="round" stroke-linejoin="round">
            <circle cx="12" cy="12" r="10"></circle>
            <line x1="12" y1="8" x2="12" y2="12"></line>
            <line x1="12" y1="16" x2="12.01" y2="16"></line>
        </symbol>
        <symbol id="share" viewBox="0 0 576 512">
            <path d="M439.691 226.164L263.687 378.15C248.3 391.439 224 380.687 224 359.986v-84.175c-108.668 12.533-151.102 58.854-112.59 182.015 5.034 16.098-14.424 28.562-28.077 18.631C39.582 444.635 0 383.766 0 322.326 0 190.99 94.818 149.009 224 138.777V56.015c0-20.667 24.28-31.469 39.687-18.164l176.004 151.985c11.086 9.575 11.071 26.767 0 36.328zm128-36.328L391.687 37.851C376.28 24.546 352 35.348 352 56.015v15.818l108.607 93.786A55.949 55.949 0 0 1 480 207.998a55.96 55.96 0 0 1-19.394 42.385L352 344.168v15.818c0 20.701 24.3 31.453 39.687 18.164l176.004-151.986c11.071-9.561 11.086-26.753 0-36.328z"></path>
        </symbol>
        <symbol id="unlink" viewBox="0 0 24 24" fill="none" stroke-width="2" stroke-linecap="round" stroke-linejoin="round">
            <path stroke="none" d="M0 0h24v24H0z" />
            <path d="M10 14a3.5 3.5 0 0 0 5 0l4 -4a3.5 3.5 0 0 0 -5 -5l-.5 .5" />
            <path d="M14 10a3.5 3.5 0 0 0 -5 0l-4 4a3.5 3.5 0 0 0 5 5l.5 -.5" />
            <line x1="16" y1="21" x2="16" y2="19" />
            <line x1="19" y1="16" x2="21" y2="16" />
            <line x1="3" y1="8" x2="5" y2="8" />
            <line x1="8" y1="3" x2="8" y2="5" />
        </symbol>
        <symbol id="sketch" viewBox="0 0 24 24" fill="none" stroke-linecap="round" stroke-linejoin="round">
            <path d="M3 9l9-7 9 7v11a2 2 0 0 1-2 2H5a2 2 0 0 1-2-2z"></path>
            <polyline points="9 22 9 12 15 12 15 22"></polyline>
        </symbol>
        <symbol id="delete" viewBox="0 0 448 512" stroke-linecap="round" stroke-linejoin="round">
            <path d="M432 32H312l-9.4-18.7A24 24 0 0 0 281.1 0H166.8a23.72 23.72 0 0 0-21.4 13.3L136 32H16A16 16 0 0 0 0 48v32a16 16 0 0 0 16 16h416a16 16 0 0 0 16-16V48a16 16 0 0 0-16-16zM53.2 467a48 48 0 0 0 47.9 45h245.8a48 48 0 0 0 47.9-45L416 128H32z" />
        </symbol>
        <symbol id="playlist" viewBox="0 0 24 24">
            <path d="M0 0h24v24H0z" fill="none" />
            <path d="M14 10H2v2h12v-2zm0-4H2v2h12V6zm4 8v-4h-2v4h-4v2h4v4h2v-4h4v-2h-4zM2 16h8v-2H2v2z" />
        </symbol>
        <symbol id="edit" viewBox="0 0 512 512" stroke-linecap="round" stroke-linejoin="round">
            <path d="M290.74 93.24l128.02 128.02-277.99 277.99-114.14 12.6C11.35 513.54-1.56 500.62.14 485.34l12.7-114.22 277.9-277.88zm207.2-19.06l-60.11-60.11c-18.75-18.75-49.16-18.75-67.91 0l-56.55 56.55 128.02 128.02 56.55-56.55c18.75-18.76 18.75-49.16 0-67.91z" />
        </symbol>
        <symbol id="upload" viewBox="0 0 384 512">
            <path d="M24 32h336c13.3 0 24 10.7 24 24v24c0 13.3-10.7 24-24 24H24C10.7 104 0 93.3 0 80V56c0-13.3 10.7-24 24-24zm232 424V320h87.7c17.8 0 26.7-21.5 14.1-34.1L205.7 133.7c-7.5-7.5-19.8-7.5-27.3 0L26.1 285.9C13.5 298.5 22.5 320 40.3 320H128v136c0 13.3 10.7 24 24 24h80c13.3 0 24-10.7 24-24z"></path>
        </symbol>
        <symbol id="sort" viewBox="0 0 320 512">
            <path d="M41 288h238c21.4 0 32.1 25.9 17 41L177 448c-9.4 9.4-24.6 9.4-33.9 0L24 329c-15.1-15.1-4.4-41 17-41zm255-105L177 64c-9.4-9.4-24.6-9.4-33.9 0L24 183c-15.1 15.1-4.4 41 17 41h238c21.4 0 32.1-25.9 17-41z"></path>
        </symbol>
        <symbol id="house" viewBox="0 0 576 512">
            <path d="M570.69,236.27,512,184.44V48a16,16,0,0,0-16-16H432a16,16,0,0,0-16,16V99.67L314.76,10.3C308.48,4.61,296.51,0,288,0s-20.45,4.61-26.73,10.3l-256,226a16,16,0,0,0-1.2,22.6l21.4,23.8A18.31,18.31,0,0,0,37.42,288a18.51,18.51,0,0,0,10.69-4.11l15.9-14V480a32,32,0,0,0,32,32H480a32,32,0,0,0,32-32V269.87l15.91,14A18.62,18.62,0,0,0,538.63,288a18.12,18.12,0,0,0,11.87-5.31l21.41-23.81A18.61,18.61,0,0,0,576,248.18,18.21,18.21,0,0,0,570.69,236.27ZM352,298.66A21.39,21.39,0,0,1,330.64,320h-85.3A21.39,21.39,0,0,1,224,298.66V213.32A21.39,21.39,0,0,1,245.34,192h85.3A21.39,21.39,0,0,1,352,213.32Z"></path>
        </symbol>
        <symbol id="caret-up" viewBox="0 0 320 512">
            <path d="M288.662 352H31.338c-17.818 0-26.741-21.543-14.142-34.142l128.662-128.662c7.81-7.81 20.474-7.81 28.284 0l128.662 128.662c12.6 12.599 3.676 34.142-14.142 34.142z"></path>
        </symbol>
        <symbol id="bars" viewBox="0 0 448 512">
            <path d="M436 124H12c-6.627 0-12-5.373-12-12V80c0-6.627 5.373-12 12-12h424c6.627 0 12 5.373 12 12v32c0 6.627-5.373 12-12 12zm0 160H12c-6.627 0-12-5.373-12-12v-32c0-6.627 5.373-12 12-12h424c6.627 0 12 5.373 12 12v32c0 6.627-5.373 12-12 12zm0 160H12c-6.627 0-12-5.373-12-12v-32c0-6.627 5.373-12 12-12h424c6.627 0 12 5.373 12 12v32c0 6.627-5.373 12-12 12z"></path>
        </symbol>
        <symbol id="facebook" viewBox="0 0 512 512">
            <title>facebook</title>
            <path d="M288,176v-64c0-17.664,14.336-32,32-32h32V0h-64c-53.024,0-96,42.976-96,96v80h-64v80h64v256h96V256h64l32-80H288z" />
        </symbol>
        <symbol id="twitter" viewBox="0 0 512 512">
            <title>twitter</title>
            <path d="M512,97.248c-19.04,8.352-39.328,13.888-60.48,16.576c21.76-12.992,38.368-33.408,46.176-58.016 c-20.288,12.096-42.688,20.64-66.56,25.408C411.872,60.704,384.416,48,354.464,48c-58.112,0-104.896,47.168-104.896,104.992 c0,8.32,0.704,16.32,2.432,23.936c-87.264-4.256-164.48-46.08-216.352-109.792c-9.056,15.712-14.368,33.696-14.368,53.056 c0,36.352,18.72,68.576,46.624,87.232c-16.864-0.32-33.408-5.216-47.424-12.928c0,0.32,0,0.736,0,1.152 c0,51.008,36.384,93.376,84.096,103.136c-8.544,2.336-17.856,3.456-27.52,3.456c-6.72,0-13.504-0.384-19.872-1.792 c13.6,41.568,52.192,72.128,98.08,73.12c-35.712,27.936-81.056,44.768-130.144,44.768c-8.608,0-16.864-0.384-25.12-1.44 C46.496,446.88,101.6,464,161.024,464c193.152,0,298.752-160,298.752-298.688c0-4.64-0.16-9.12-0.384-13.568 C480.224,136.96,497.728,118.496,512,97.248z" />
        </symbol>
        <symbol id="instagram" viewBox="0 0 169.063 169.063">
            <title>instagram</title>
            <path d="M122.406,0H46.654C20.929,0,0,20.93,0,46.655v75.752c0,25.726,20.929,46.655,46.654,46.655h75.752 c25.727,0,46.656-20.93,46.656-46.655V46.655C169.063,20.93,148.133,0,122.406,0z M154.063,122.407 c0,17.455-14.201,31.655-31.656,31.655H46.654C29.2,154.063,15,139.862,15,122.407V46.655C15,29.201,29.2,15,46.654,15h75.752 c17.455,0,31.656,14.201,31.656,31.655V122.407z" />
            <path d="M84.531,40.97c-24.021,0-43.563,19.542-43.563,43.563c0,24.02,19.542,43.561,43.563,43.561s43.563-19.541,43.563-43.561 C128.094,60.512,108.552,40.97,84.531,40.97z M84.531,113.093c-15.749,0-28.563-12.812-28.563-28.561 c0-15.75,12.813-28.563,28.563-28.563s28.563,12.813,28.563,28.563C113.094,100.281,100.28,113.093,84.531,113.093z" />
            <path d="M129.921,28.251c-2.89,0-5.729,1.17-7.77,3.22c-2.051,2.04-3.23,4.88-3.23,7.78c0,2.891,1.18,5.73,3.23,7.78 c2.04,2.04,4.88,3.22,7.77,3.22c2.9,0,5.73-1.18,7.78-3.22c2.05-2.05,3.22-4.89,3.22-7.78c0-2.9-1.17-5.74-3.22-7.78 C135.661,29.421,132.821,28.251,129.921,28.251z" />
        </symbol>
        <symbol id="youtube" viewBox="-21 -117 682.66672 682">
            <title>youtube</title>
            <path d="m626.8125 64.035156c-7.375-27.417968-28.992188-49.03125-56.40625-56.414062-50.082031-13.703125-250.414062-13.703125-250.414062-13.703125s-200.324219 0-250.40625 13.183593c-26.886719 7.375-49.03125 29.519532-56.40625 56.933594-13.179688 50.078125-13.179688 153.933594-13.179688 153.933594s0 104.378906 13.179688 153.933594c7.382812 27.414062 28.992187 49.027344 56.410156 56.410156 50.605468 13.707031 250.410156 13.707031 250.410156 13.707031s200.324219 0 250.40625-13.183593c27.417969-7.378907 49.03125-28.992188 56.414062-56.40625 13.175782-50.082032 13.175782-153.933594 13.175782-153.933594s.527344-104.382813-13.183594-154.460938zm-370.601562 249.878906v-191.890624l166.585937 95.945312zm0 0" />
        </symbol>
        <symbol id="camera-movie" viewBox="0 0 576 512">
            <path d="M535.68 260.59L448 321.05V447l87.66 60.39c17 11.68 40.32-.23 40.32-20.63V281.22c.02-20.32-23.25-32.32-40.3-20.63zM368.2 288H16a16 16 0 0 0-16 16v32a16 16 0 0 0 16 16h48v112.2a47.81 47.81 0 0 0 47.8 47.8h256.4a47.81 47.81 0 0 0 47.8-47.8V335.8a47.81 47.81 0 0 0-47.8-47.8zM352 0c-48.57 0-90.31 27.37-112 67.23C218.31 27.37 176.57 0 128 0a128 128 0 0 0 0 256h224a128 128 0 0 0 0-256zM128 192a64 64 0 1 1 64-64 64.07 64.07 0 0 1-64 64zm224 0a64 64 0 1 1 64-64 64.07 64.07 0 0 1-64 64z"></path>
        </symbol>
        <symbol id="analytics" viewBox="0 0 24 24" fill="none" stroke-width="3" stroke-linecap="round" stroke-linejoin="round">
            <line x1="18" y1="20" x2="18" y2="10"></line>
            <line x1="12" y1="20" x2="12" y2="4"></line>
            <line x1="6" y1="20" x2="6" y2="14"></line>
        </symbol>
        <symbol id="whatsapp" viewBox="0 0 448 512">
            <path d="M380.9 97.1C339 55.1 283.2 32 223.9 32c-122.4 0-222 99.6-222 222 0 39.1 10.2 77.3 29.6 111L0 480l117.7-30.9c32.4 17.7 68.9 27 106.1 27h.1c122.3 0 224.1-99.6 224.1-222 0-59.3-25.2-115-67.1-157zm-157 341.6c-33.2 0-65.7-8.9-94-25.7l-6.7-4-69.8 18.3L72 359.2l-4.4-7c-18.5-29.4-28.2-63.3-28.2-98.2 0-101.7 82.8-184.5 184.6-184.5 49.3 0 95.6 19.2 130.4 54.1 34.8 34.9 56.2 81.2 56.1 130.5 0 101.8-84.9 184.6-186.6 184.6zm101.2-138.2c-5.5-2.8-32.8-16.2-37.9-18-5.1-1.9-8.8-2.8-12.5 2.8-3.7 5.6-14.3 18-17.6 21.8-3.2 3.7-6.5 4.2-12 1.4-32.6-16.3-54-29.1-75.5-66-5.7-9.8 5.7-9.1 16.3-30.3 1.8-3.7.9-6.9-.5-9.7-1.4-2.8-12.5-30.1-17.1-41.2-4.5-10.8-9.1-9.3-12.5-9.5-3.2-.2-6.9-.2-10.6-.2-3.7 0-9.7 1.4-14.8 6.9-5.1 5.6-19.4 19-19.4 46.3 0 27.3 19.9 53.7 22.6 57.4 2.8 3.7 39.1 59.7 94.8 83.8 35.2 15.2 49 16.5 66.6 13.9 10.7-1.6 32.8-13.4 37.4-26.4 4.6-13 4.6-24.1 3.2-26.4-1.3-2.5-5-3.9-10.5-6.6z"></path>
        </symbol>
        <symbol id="website" viewBox="0 0 496 512">
            <path d="M131.5 217.5L55.1 100.1c47.6-59.2 119-91.8 192-92.1 42.3-.3 85.5 10.5 124.8 33.2 43.4 25.2 76.4 61.4 97.4 103L264 133.4c-58.1-3.4-113.4 29.3-132.5 84.1zm32.9 38.5c0 46.2 37.4 83.6 83.6 83.6s83.6-37.4 83.6-83.6-37.4-83.6-83.6-83.6-83.6 37.3-83.6 83.6zm314.9-89.2L339.6 174c37.9 44.3 38.5 108.2 6.6 157.2L234.1 503.6c46.5 2.5 94.4-7.7 137.8-32.9 107.4-62 150.9-192 107.4-303.9zM133.7 303.6L40.4 120.1C14.9 159.1 0 205.9 0 256c0 124 90.8 226.7 209.5 244.9l63.7-124.8c-57.6 10.8-113.2-20.8-139.5-72.5z"></path>
        </symbol>
        <symbol id="chevron-left" viewBox="0 0 24 24" fill="none" stroke-width="3" stroke-linecap="round" stroke-linejoin="round">
            <polyline points="15 18 9 12 15 6"></polyline>
        </symbol>
        <symbol id="chevron-right" viewBox="0 0 24 24" fill="none" stroke-width="3" stroke-linecap="round" stroke-linejoin="round">
            <polyline points="9 18 15 12 9 6"></polyline>
        </symbol>
        <symbol id="tmdb" viewBox="0 0 185.04 133.4">
            <g id="Layer_2" data-name="Layer 2">
                <g id="Layer_1-2" data-name="Layer 1">
                    <path class="cls-1" d="M51.06,66.7h0A17.67,17.67,0,0,1,68.73,49h-.1A17.67,17.67,0,0,1,86.3,66.7h0A17.67,17.67,0,0,1,68.63,84.37h.1A17.67,17.67,0,0,1,51.06,66.7Zm82.67-31.33h32.9A17.67,17.67,0,0,0,184.3,17.7h0A17.67,17.67,0,0,0,166.63,0h-32.9A17.67,17.67,0,0,0,116.06,17.7h0A17.67,17.67,0,0,0,133.73,35.37Zm-113,98h63.9A17.67,17.67,0,0,0,102.3,115.7h0A17.67,17.67,0,0,0,84.63,98H20.73A17.67,17.67,0,0,0,3.06,115.7h0A17.67,17.67,0,0,0,20.73,133.37Zm83.92-49h6.25L125.5,49h-8.35l-8.9,23.2h-.1L99.4,49H90.5Zm32.45,0h7.8V49h-7.8Zm22.2,0h24.95V77.2H167.1V70h15.35V62.8H167.1V56.2h16.25V49h-24ZM10.1,35.4h7.8V6.9H28V0H0V6.9H10.1ZM39,35.4h7.8V20.1H61.9V35.4h7.8V0H61.9V13.2H46.75V0H39Zm41.25,0h25V28.2H88V21h15.35V13.8H88V7.2h16.25V0h-24Zm-79,49H9V57.25h.1l9,27.15H24l9.3-27.15h.1V84.4h7.8V49H29.45l-8.2,23.1h-.1L13,49H1.2Zm112.09,49H126a24.59,24.59,0,0,0,7.56-1.15,19.52,19.52,0,0,0,6.35-3.37,16.37,16.37,0,0,0,4.37-5.5A16.91,16.91,0,0,0,146,115.8a18.5,18.5,0,0,0-1.68-8.25,15.1,15.1,0,0,0-4.52-5.53A18.55,18.55,0,0,0,133.07,99,33.54,33.54,0,0,0,125,98H113.29Zm7.81-28.2h4.6a17.43,17.43,0,0,1,4.67.62,11.68,11.68,0,0,1,3.88,1.88,9,9,0,0,1,2.62,3.18,9.87,9.87,0,0,1,1,4.52,11.92,11.92,0,0,1-1,5.08,8.69,8.69,0,0,1-2.67,3.34,10.87,10.87,0,0,1-4,1.83,21.57,21.57,0,0,1-5,.55H121.1Zm36.14,28.2h14.5a23.11,23.11,0,0,0,4.73-.5,13.38,13.38,0,0,0,4.27-1.65,9.42,9.42,0,0,0,3.1-3,8.52,8.52,0,0,0,1.2-4.68,9.16,9.16,0,0,0-.55-3.2,7.79,7.79,0,0,0-1.57-2.62,8.38,8.38,0,0,0-2.45-1.85,10,10,0,0,0-3.18-1v-.1a9.28,9.28,0,0,0,4.43-2.82,7.42,7.42,0,0,0,1.67-5,8.34,8.34,0,0,0-1.15-4.65,7.88,7.88,0,0,0-3-2.73,12.9,12.9,0,0,0-4.17-1.3,34.42,34.42,0,0,0-4.63-.32h-13.2Zm7.8-28.8h5.3a10.79,10.79,0,0,1,1.85.17,5.77,5.77,0,0,1,1.7.58,3.33,3.33,0,0,1,1.23,1.13,3.22,3.22,0,0,1,.47,1.82,3.63,3.63,0,0,1-.42,1.8,3.34,3.34,0,0,1-1.13,1.2,4.78,4.78,0,0,1-1.57.65,8.16,8.16,0,0,1-1.78.2H165Zm0,14.15h5.9a15.12,15.12,0,0,1,2.05.15,7.83,7.83,0,0,1,2,.55,4,4,0,0,1,1.58,1.17,3.13,3.13,0,0,1,.62,2,3.71,3.71,0,0,1-.47,1.95,4,4,0,0,1-1.23,1.3,4.78,4.78,0,0,1-1.67.7,8.91,8.91,0,0,1-1.83.2h-7Z" />
                </g>
            </g>
        </symbol>
        <symbol id="logo" viewBox="0 0 77.4 87.4">
            <defs>
                <style>
                .a {
                    fill: #f5c518;
                }
                </style>
            </defs>
            <path class="a" d="M59.9,38.7H87.4V87.4H0V38.7H27.5V63H59.8V38.7Zm0-28.7H27.5V34.4H59.8V10Z" transform="translate(87.4) rotate(90)" />
        </symbol>
        <symbol id="onesignal" viewBox="0 0 35.2 32">
            <path d="M20.93,26.712a9.9,9.9,0,1,0-13.319-9.3A9.909,9.909,0,0,0,15.222,27v.969A10.833,10.833,0,1,1,28.541,17.412a10.833,10.833,0,0,1-7.611,10.3ZM17.6,12.235A5.156,5.156,0,0,0,15.222,22V23.05a6.184,6.184,0,1,1,5.708-.5V21.383a5.128,5.128,0,0,0,1.9-3.971A5.21,5.21,0,0,0,17.6,12.235ZM0,17.412A17.34,17.34,0,0,0,8.009,32c.291-.188.59-.365.891-.537.216-.121.434-.237.655-.35q.4-.2.8-.384c.271-.121.545-.234.824-.343.226-.088.455-.169.686-.248q.484-.165.982-.3c.249-.069.5-.134.754-.192s.515-.115.776-.163c.278-.051.556-.1.838-.137.316-.032.631-.07.951-.1V18.823h-.951V16.941h4.757v12.4A17.766,17.766,0,0,1,27.189,32,17.368,17.368,0,0,0,17.6,0,17.507,17.507,0,0,0,0,17.412Z" />
        </symbol>
<symbol id="rss" viewBox="0 0 24 24" fill="none" stroke-width="2" stroke-linecap="round" stroke-linejoin="round">
<path d="M4 11a9 9 0 0 1 9 9"></path>
<path d="M4 4a16 16 0 0 1 16 16"></path>
<circle cx="5" cy="19" r="1"></circle>
</symbol>
<symbol id="chat" viewBox="0 0 16 16" fill="none">
  <path d="M2.678 11.894a1 1 0 0 1 .287.801 10.97 10.97 0 0 1-.398 2c1.395-.323 2.247-.697 2.634-.893a1 1 0 0 1 .71-.074A8.06 8.06 0 0 0 8 14c3.996 0 7-2.807 7-6 0-3.192-3.004-6-7-6S1 4.808 1 8c0 1.468.617 2.83 1.678 3.894zm-.493 3.905a21.682 21.682 0 0 1-.713.129c-.2.032-.352-.176-.273-.362a9.68 9.68 0 0 0 .244-.637l.003-.01c.248-.72.45-1.548.524-2.319C.743 11.37 0 9.76 0 8c0-3.866 3.582-7 8-7s8 3.134 8 7-3.582 7-8 7a9.06 9.06 0 0 1-2.347-.306c-.52.263-1.639.742-3.468 1.105z"/>
  <path d="M4 5.5a.5.5 0 0 1 .5-.5h7a.5.5 0 0 1 0 1h-7a.5.5 0 0 1-.5-.5zM4 8a.5.5 0 0 1 .5-.5h7a.5.5 0 0 1 0 1h-7A.5.5 0 0 1 4 8zm0 2.5a.5.5 0 0 1 .5-.5h4a.5.5 0 0 1 0 1h-4a.5.5 0 0 1-.5-.5z"/>
</symbol>
<symbol id="viewrequest" viewBox="0 0 20 20">
<path fill="none" d="M19.471,8.934L18.883,8.34c-2.096-2.14-4.707-4.804-8.903-4.804c-4.171,0-6.959,2.83-8.996,4.897L0.488,8.934c-0.307,0.307-0.307,0.803,0,1.109l0.401,0.403c2.052,2.072,4.862,4.909,9.091,4.909c4.25,0,6.88-2.666,8.988-4.807l0.503-0.506C19.778,9.737,19.778,9.241,19.471,8.934z M9.98,13.787c-3.493,0-5.804-2.254-7.833-4.3C4.182,7.424,6.493,5.105,9.98,5.105c3.536,0,5.792,2.301,7.784,4.332l0.049,0.051C15.818,11.511,13.551,13.787,9.98,13.787z"></path>
<circle fill="none" cx="9.98" cy="9.446" r="1.629"></circle>
</symbol>
    </defs>
</svg>
